<?xml version="1.0" encoding="utf-8"?>
<!-- Generator: Adobe Illustrator 23.0.1, SVG Export Plug-In . SVG Version: 6.00 Build 0)  -->
<svg version="1.1" xmlns="http://www.w3.org/2000/svg" xmlns:xlink="http://www.w3.org/1999/xlink" x="0px" y="0px"
	 viewBox="0 0 451.88 127.75" style="enable-background:new 0 0 451.88 127.75;" xml:space="preserve">
<style type="text/css">
	.st0{fill:#FFFFFF;}
	.st1{fill:#1A3133;}
	.st2{fill:#E5C588;}
	.st3{fill:#0D0D0D;}
	.st4{fill:#2C2C2C;}
	.st5{display:none;}
	.st6{display:inline;fill:#2C2C2C;}
	.st7{display:inline;}
	.st8{fill:#EDEDED;}
	.st9{fill:none;stroke:#666666;stroke-width:0.75;stroke-miterlimit:10;}
</style>
<g id="Layer_2">
</g>
<g id="Original">
</g>
<g id="B_x26_W">
</g>
<g id="Layer_4">
</g>
<g id="Layer_6">
</g>
<g id="Layer_5">
</g>
<g id="Layer_7">
</g>
<g id="Layer_8">
</g>
<g id="Layer_9">
	<g class="st5">
		<g class="st7">
			<g>
				<g>
					<path class="st0" d="M62.65,55.09L86.9,96.48V25.32L62.65,55.09z M62.65,55.09L86.9,96.48V25.32L62.65,55.09z M0,0v127.75
						h127.75V0H0z M95.14,102.49H80.66L57.12,61.38L40.85,80.91v21.58h-8.24V25.26h8.24v44.37l36.01-44.37H86.9v0.06l0.05-0.06h8.19
						V102.49z M86.9,96.48V25.32L62.65,55.09L86.9,96.48z M62.65,55.09L86.9,96.48V25.32L62.65,55.09z"/>
				</g>
			</g>
			<g>
				<g>
					<g>
						<path class="st0" d="M86.9,25.26v0.06l0.05-0.06H86.9z"/>
					</g>
					<g>
						<polygon class="st0" points="86.95,25.26 86.9,25.32 86.9,25.26 						"/>
					</g>
				</g>
			</g>
		</g>
		<g class="st7">
			<g>
				<path class="st0" d="M446.88,5v117.75H123V5H446.88 M451.88,0H118v127.75h333.88V0L451.88,0z"/>
			</g>
			<g>
				<g>
					<path class="st0" d="M162.39,69.21l-2.26,1.85v6.51h-3.9V45.03h3.9v21.95l8.98-7.22l2.39,2.1l-6.42,5.17l7.26,10.54h-4.57
						L162.39,69.21z"/>
				</g>
				<g>
					<path class="st0" d="M186,61.78c0.82-0.73,1.7-1.29,2.62-1.68c0.92-0.39,1.73-0.6,2.44-0.63l-0.17,3.9
						c-1.26-0.06-2.4,0.19-3.42,0.75c-1.02,0.56-1.82,1.34-2.39,2.33c-0.57,0.99-0.86,2.05-0.86,3.17v7.93h-3.9V60.19h3.48
						l0.29,4.11C184.54,63.35,185.18,62.51,186,61.78z"/>
				</g>
				<g>
					<path class="st0" d="M199.67,52.38c0.48-0.42,1.02-0.63,1.64-0.63c0.62,0,1.16,0.21,1.62,0.63c0.46,0.42,0.69,0.94,0.69,1.55
						s-0.23,1.13-0.69,1.55c-0.46,0.42-1,0.63-1.62,0.63c-0.61,0-1.16-0.21-1.64-0.63c-0.48-0.42-0.71-0.94-0.71-1.55
						S199.19,52.8,199.67,52.38z M203.15,60.19v17.38h-3.9V60.19H203.15z"/>
				</g>
				<g>
					<path class="st0" d="M239.4,60.9c0.99,0.95,1.52,2.21,1.57,3.78v12.89h-3.9V66.11c-0.08-2.04-1.01-3.12-2.77-3.23
						c-1.01,0-1.91,0.3-2.71,0.9c-0.8,0.6-1.42,1.39-1.87,2.37c-0.45,0.98-0.69,2.03-0.71,3.15v8.27h-3.95V66.11
						c-0.08-2.04-1.04-3.12-2.86-3.23c-0.98,0-1.87,0.3-2.66,0.9c-0.8,0.6-1.42,1.4-1.87,2.39c-0.45,0.99-0.67,2.05-0.67,3.17v8.23
						h-3.9V60.19h3.53l0.3,3.28c0.67-1.26,1.59-2.24,2.75-2.94c1.16-0.7,2.48-1.05,3.97-1.05c1.4,0,2.57,0.33,3.53,0.99
						c0.95,0.66,1.57,1.56,1.85,2.71c0.73-1.15,1.65-2.05,2.77-2.71c1.12-0.66,2.32-0.99,3.61-0.99
						C237.07,59.47,238.4,59.95,239.4,60.9z"/>
				</g>
				<g>
					<path class="st0" d="M267.33,60.19l-11.21,25.73h-3.86l3.99-8.94l-8.06-16.79h4.41l5.62,12.38l5.5-12.38H267.33z"/>
				</g>
				<g>
					<path class="st0" d="M292.39,45.03v32.53h-3.95v-2.73c-0.84,0.98-1.87,1.75-3.08,2.31c-1.22,0.56-2.55,0.84-4.01,0.84
						c-1.62,0-3.09-0.39-4.41-1.18c-1.32-0.78-2.34-1.88-3.09-3.29c-0.74-1.41-1.11-3.04-1.11-4.89c0-1.88,0.39-3.5,1.17-4.89
						s1.86-2.44,3.23-3.17c1.37-0.73,2.92-1.09,4.66-1.09c1.32,0,2.58,0.27,3.8,0.82c1.22,0.55,2.17,1.3,2.88,2.25v-17.5H292.39z
						 M286.41,73.41c1.05-0.81,1.73-1.9,2.04-3.27v-3.27c-0.34-1.26-1.05-2.29-2.14-3.09c-1.09-0.8-2.34-1.19-3.74-1.19
						c-1.06,0-2.04,0.26-2.94,0.78c-0.9,0.52-1.61,1.23-2.14,2.14c-0.53,0.91-0.8,1.94-0.8,3.08c0,1.12,0.26,2.14,0.8,3.06
						c0.53,0.92,1.24,1.65,2.14,2.18c0.9,0.53,1.88,0.8,2.94,0.8C284.08,74.63,285.36,74.22,286.41,73.41z"/>
				</g>
				<g>
					<path class="st0" d="M314.68,73.12l1.81,2.9c-0.92,0.62-1.92,1.1-3,1.45c-1.08,0.35-2.12,0.52-3.13,0.52
						c-1.93,0-3.62-0.4-5.06-1.2s-2.55-1.9-3.34-3.3c-0.78-1.4-1.17-2.98-1.17-4.74c0-1.71,0.43-3.27,1.28-4.68
						c0.85-1.41,2.02-2.53,3.5-3.36c1.48-0.82,3.11-1.24,4.87-1.24c2.27,0,4.16,0.67,5.69,1.99c1.52,1.33,2.57,3.18,3.13,5.56
						l-13.77,4.83c0.5,0.87,1.18,1.55,2.04,2.04c0.85,0.49,1.83,0.73,2.92,0.73C311.9,74.63,313.31,74.12,314.68,73.12z
						 M306.2,64.26c-1.04,1.12-1.55,2.55-1.55,4.28c0,0.42,0.01,0.74,0.04,0.97l10.12-3.74c-0.42-0.95-1.01-1.72-1.78-2.31
						c-0.77-0.59-1.73-0.88-2.88-0.88C308.55,62.58,307.24,63.14,306.2,64.26z"/>
				</g>
				<g>
					<path class="st0" d="M331.18,45.03v32.53h-3.9V45.03H331.18z"/>
				</g>
				<g>
					<path class="st0" d="M341.55,52.38c0.48-0.42,1.02-0.63,1.64-0.63c0.62,0,1.16,0.21,1.62,0.63s0.69,0.94,0.69,1.55
						s-0.23,1.13-0.69,1.55c-0.46,0.42-1,0.63-1.62,0.63c-0.61,0-1.16-0.21-1.64-0.63c-0.48-0.42-0.71-0.94-0.71-1.55
						S341.07,52.8,341.55,52.38z M345.03,60.19v17.38h-3.9V60.19H345.03z"/>
				</g>
				<g>
					<path class="st0" d="M373.32,60.19v17.5c0,1.6-0.41,3.04-1.22,4.32c-0.81,1.29-1.97,2.31-3.46,3.06
						c-1.5,0.76-3.25,1.13-5.27,1.13c-1.76,0-3.28-0.29-4.55-0.88c-1.27-0.59-2.55-1.46-3.84-2.6l2.31-2.69
						c0.95,0.9,1.9,1.57,2.86,2.04c0.95,0.46,2,0.69,3.15,0.69c1.93,0,3.42-0.46,4.47-1.39c1.05-0.92,1.59-2.17,1.62-3.74l0.04-3.27
						c-0.64,1.09-1.59,1.97-2.83,2.62c-1.25,0.66-2.68,0.99-4.3,0.99c-1.59,0-3.06-0.41-4.41-1.22c-1.34-0.81-2.41-1.92-3.21-3.32
						c-0.8-1.4-1.19-2.95-1.19-4.66c0-1.76,0.41-3.35,1.24-4.77c0.82-1.41,1.94-2.53,3.34-3.34c1.4-0.81,2.9-1.22,4.49-1.22
						c1.48,0,2.86,0.29,4.11,0.88c1.26,0.59,2.2,1.34,2.81,2.27l0.3-2.44H373.32z M367.28,73.54c1.09-0.81,1.8-1.88,2.14-3.19V66.9
						c-0.39-1.26-1.13-2.27-2.22-3.04c-1.09-0.77-2.35-1.15-3.78-1.15c-1.71,0-3.13,0.56-4.28,1.68c-1.15,1.12-1.72,2.55-1.72,4.28
						c0,1.12,0.26,2.14,0.8,3.06c0.53,0.92,1.26,1.66,2.18,2.2c0.92,0.55,1.93,0.82,3.02,0.82
						C364.9,74.75,366.19,74.35,367.28,73.54z"/>
				</g>
				<g>
					<path class="st0" d="M398.09,60.96c1.06,0.97,1.61,2.22,1.64,3.76v12.85h-3.95v-11.5c-0.06-0.98-0.35-1.75-0.88-2.31
						c-0.53-0.56-1.33-0.85-2.39-0.88c-1.01,0-1.92,0.28-2.73,0.84c-0.81,0.56-1.45,1.34-1.91,2.35c-0.46,1.01-0.69,2.13-0.69,3.36
						v8.14h-3.9V45.03h3.82v18.3c0.64-1.15,1.57-2.07,2.79-2.77c1.22-0.7,2.61-1.05,4.18-1.05C395.68,59.52,397.02,60,398.09,60.96z
						"/>
				</g>
				<g>
					<path class="st0" d="M415.26,52.55v7.68H420v3.11h-4.74v14.23h-3.95V63.33h-3.19v-3.11h3.19v-7.68H415.26z"/>
				</g>
			</g>
		</g>
	</g>
	<g>
		<g>
			<g>
				<g>
					<path class="st0" d="M58.94,60.23l10.75,18.34V47.04L58.94,60.23z M58.94,60.23l10.75,18.34V47.04L58.94,60.23z M31.18,35.82
						v56.61h56.61V35.82H31.18z M73.34,81.23h-6.42L56.49,63.02l-7.21,8.65v9.56h-3.65V47.01h3.65v19.66l15.96-19.66h4.45v0.03
						l0.02-0.03h3.63V81.23z M69.69,78.57V47.04L58.94,60.23L69.69,78.57z M58.94,60.23l10.75,18.34V47.04L58.94,60.23z"/>
				</g>
			</g>
			<g>
				<g>
					<g>
						<path class="st0" d="M26.4,19.05v0.07l0.06-0.07H26.4z"/>
					</g>
					<g>
						<polygon class="st0" points="26.46,19.05 26.4,19.13 26.4,19.05 						"/>
					</g>
				</g>
			</g>
		</g>
		<g>
			<g>
				<g>
					<path class="st0" d="M116.84,71.71l-2.71,2.22v7.79h-4.68V42.74h4.68v26.3l10.76-8.65l2.87,2.51l-7.7,6.19l8.7,12.62h-5.48
						L116.84,71.71z"/>
				</g>
				<g>
					<path class="st0" d="M145.13,62.81c0.99-0.87,2.04-1.54,3.14-2.01c1.11-0.47,2.08-0.72,2.92-0.75l-0.2,4.68
						c-1.51-0.07-2.88,0.23-4.1,0.9c-1.23,0.67-2.18,1.6-2.87,2.79c-0.69,1.19-1.03,2.46-1.03,3.8v9.51h-4.68V60.9h4.17l0.35,4.93
						C143.38,64.69,144.14,63.68,145.13,62.81z"/>
				</g>
				<g>
					<path class="st0" d="M161.5,51.54c0.57-0.5,1.22-0.75,1.96-0.75c0.74,0,1.39,0.25,1.94,0.75c0.55,0.5,0.83,1.12,0.83,1.86
						s-0.28,1.36-0.83,1.86c-0.55,0.5-1.2,0.75-1.94,0.75c-0.74,0-1.39-0.25-1.96-0.75c-0.57-0.5-0.85-1.12-0.85-1.86
						S160.93,52.05,161.5,51.54z M165.68,60.9v20.82H161V60.9H165.68z"/>
				</g>
				<g>
					<path class="st0" d="M209.1,61.75c1.19,1.14,1.82,2.65,1.89,4.53v15.44h-4.68V67.99c-0.1-2.45-1.21-3.74-3.32-3.87
						c-1.21,0-2.29,0.36-3.24,1.08c-0.96,0.72-1.7,1.67-2.24,2.84c-0.54,1.18-0.82,2.43-0.85,3.77v9.91h-4.73V67.99
						c-0.1-2.45-1.24-3.74-3.42-3.87c-1.17,0-2.24,0.36-3.19,1.08c-0.96,0.72-1.7,1.68-2.24,2.87c-0.54,1.19-0.8,2.46-0.8,3.8v9.86
						h-4.68V60.9h4.22l0.35,3.92c0.8-1.51,1.9-2.68,3.29-3.52c1.39-0.84,2.98-1.26,4.75-1.26c1.68,0,3.08,0.4,4.23,1.18
						c1.14,0.79,1.88,1.87,2.21,3.24c0.87-1.37,1.98-2.46,3.32-3.24c1.34-0.79,2.78-1.18,4.33-1.18
						C206.31,60.04,207.91,60.61,209.1,61.75z"/>
				</g>
				<g>
					<path class="st0" d="M242.57,60.9l-13.43,30.83h-4.63l4.78-10.71l-9.66-20.12h5.28l6.74,14.84l6.59-14.84H242.57z"/>
				</g>
				<g>
					<path class="st0" d="M272.6,42.74v38.98h-4.73v-3.27c-1,1.17-2.24,2.09-3.7,2.77c-1.46,0.67-3.06,1.01-4.8,1.01
						c-1.94,0-3.71-0.47-5.28-1.41c-1.58-0.94-2.81-2.25-3.7-3.95c-0.89-1.69-1.33-3.65-1.33-5.86c0-2.25,0.47-4.2,1.41-5.86
						s2.23-2.92,3.87-3.8c1.64-0.87,3.5-1.31,5.58-1.31c1.58,0,3.09,0.33,4.55,0.98c1.46,0.66,2.61,1.55,3.45,2.69V42.74H272.6z
						 M265.43,76.74c1.26-0.97,2.07-2.28,2.44-3.92V68.9c-0.4-1.51-1.26-2.74-2.56-3.7c-1.31-0.96-2.8-1.43-4.48-1.43
						c-1.27,0-2.45,0.31-3.52,0.93c-1.07,0.62-1.93,1.47-2.56,2.56c-0.64,1.09-0.96,2.32-0.96,3.7c0,1.34,0.32,2.57,0.96,3.67
						c0.64,1.11,1.49,1.98,2.56,2.62c1.07,0.64,2.25,0.96,3.52,0.96C262.64,78.2,264.17,77.71,265.43,76.74z"/>
				</g>
				<g>
					<path class="st0" d="M299.3,76.39l2.16,3.47c-1.11,0.74-2.31,1.32-3.6,1.74c-1.29,0.42-2.54,0.63-3.75,0.63
						c-2.31,0-4.33-0.48-6.06-1.43c-1.73-0.96-3.06-2.27-4-3.95c-0.94-1.67-1.41-3.57-1.41-5.68c0-2.04,0.51-3.91,1.53-5.61
						c1.02-1.69,2.42-3.04,4.2-4.02c1.78-0.99,3.72-1.48,5.83-1.48c2.72,0,4.99,0.8,6.81,2.39c1.83,1.59,3.08,3.81,3.75,6.66
						l-16.5,5.78c0.6,1.04,1.42,1.85,2.44,2.44c1.02,0.59,2.19,0.88,3.49,0.88C295.96,78.2,297.66,77.6,299.3,76.39z M289.14,65.78
						c-1.24,1.34-1.86,3.05-1.86,5.13c0,0.5,0.01,0.89,0.05,1.16l12.12-4.48c-0.5-1.14-1.22-2.06-2.14-2.77
						c-0.92-0.7-2.07-1.06-3.45-1.06C291.96,63.77,290.38,64.44,289.14,65.78z"/>
				</g>
				<g>
					<path class="st0" d="M319.07,42.74v38.98h-4.68V42.74H319.07z"/>
				</g>
				<g>
					<path class="st0" d="M331.49,51.54c0.57-0.5,1.22-0.75,1.96-0.75c0.74,0,1.39,0.25,1.94,0.75c0.55,0.5,0.83,1.12,0.83,1.86
						s-0.28,1.36-0.83,1.86c-0.55,0.5-1.2,0.75-1.94,0.75c-0.74,0-1.39-0.25-1.96-0.75c-0.57-0.5-0.85-1.12-0.85-1.86
						S330.91,52.05,331.49,51.54z M335.66,60.9v20.82h-4.68V60.9H335.66z"/>
				</g>
				<g>
					<path class="st0" d="M369.56,60.9v20.97c0,1.91-0.49,3.64-1.46,5.18c-0.97,1.54-2.36,2.77-4.15,3.67s-3.9,1.36-6.31,1.36
						c-2.11,0-3.93-0.35-5.46-1.06c-1.53-0.7-3.06-1.74-4.6-3.12l2.77-3.22c1.14,1.07,2.28,1.89,3.42,2.44
						c1.14,0.55,2.4,0.83,3.77,0.83c2.31,0,4.1-0.55,5.36-1.66c1.26-1.11,1.9-2.6,1.94-4.48l0.05-3.92
						c-0.77,1.31-1.9,2.36-3.39,3.14c-1.49,0.79-3.21,1.18-5.16,1.18c-1.91,0-3.67-0.49-5.28-1.46s-2.89-2.3-3.85-3.97
						s-1.43-3.54-1.43-5.58c0-2.11,0.49-4.02,1.48-5.71c0.99-1.69,2.32-3.03,4-4c1.67-0.97,3.47-1.46,5.38-1.46
						c1.78,0,3.42,0.35,4.93,1.06c1.51,0.7,2.63,1.61,3.37,2.72l0.35-2.92H369.56z M362.32,76.89c1.31-0.97,2.16-2.25,2.56-3.82
						v-4.12c-0.47-1.51-1.36-2.72-2.66-3.65c-1.31-0.92-2.82-1.38-4.53-1.38c-2.05,0-3.75,0.67-5.13,2.01
						c-1.38,1.34-2.06,3.05-2.06,5.13c0,1.34,0.32,2.57,0.96,3.67c0.64,1.11,1.51,1.99,2.62,2.64c1.11,0.66,2.31,0.98,3.62,0.98
						C359.46,78.35,361.01,77.86,362.32,76.89z"/>
				</g>
				<g>
					<path class="st0" d="M399.23,61.83c1.27,1.16,1.93,2.66,1.96,4.5v15.39h-4.73V67.94c-0.07-1.17-0.42-2.09-1.06-2.77
						c-0.64-0.67-1.59-1.02-2.87-1.06c-1.21,0-2.3,0.34-3.27,1.01c-0.97,0.67-1.73,1.61-2.29,2.81c-0.55,1.21-0.83,2.55-0.83,4.02
						v9.76h-4.68V42.74h4.58v21.93c0.77-1.37,1.89-2.48,3.34-3.32c1.46-0.84,3.13-1.26,5-1.26
						C396.35,60.09,397.95,60.67,399.23,61.83z"/>
				</g>
				<g>
					<path class="st0" d="M419.8,51.75v9.2h5.68v3.72h-5.68v17.05h-4.73V64.67h-3.82v-3.72h3.82v-9.2H419.8z"/>
				</g>
			</g>
		</g>
	</g>
</g>
</svg>
