<?xml version="1.0" encoding="utf-8"?>
<!-- Generator: Adobe Illustrator 23.0.1, SVG Export Plug-In . SVG Version: 6.00 Build 0)  -->
<svg version="1.1" xmlns="http://www.w3.org/2000/svg" xmlns:xlink="http://www.w3.org/1999/xlink" x="0px" y="0px"
	 viewBox="0 0 451.88 127.75" style="enable-background:new 0 0 451.88 127.75;" xml:space="preserve">
<style type="text/css">
	.st0{fill:#FFFFFF;}
	.st1{fill:#1A3133;}
	.st2{fill:#E5C588;}
	.st3{fill:#0D0D0D;}
	.st4{fill:#2C2C2C;}
	.st5{display:none;}
	.st6{display:inline;fill:#2C2C2C;}
	.st7{display:inline;}
	.st8{fill:#EDEDED;}
	.st9{fill:none;stroke:#666666;stroke-width:0.75;stroke-miterlimit:10;}
</style>
<g id="Layer_2">
</g>
<g id="Original">
</g>
<g id="B_x26_W">
</g>
<g id="Layer_4">
</g>
<g id="Layer_6">
</g>
<g id="Layer_5">
</g>
<g id="Layer_7">
</g>
<g id="Layer_8">
</g>
<g id="Layer_9">
	<g>
		<g>
			<g>
				<g>
					<path class="st0" d="M62.65,55.09L86.9,96.48V25.32L62.65,55.09z M62.65,55.09L86.9,96.48V25.32L62.65,55.09z M0,0v127.75
						h127.75V0H0z M95.14,102.49H80.66L57.12,61.38L40.85,80.91v21.58h-8.24V25.26h8.24v44.37l36.01-44.37H86.9v0.06l0.05-0.06h8.19
						V102.49z M86.9,96.48V25.32L62.65,55.09L86.9,96.48z M62.65,55.09L86.9,96.48V25.32L62.65,55.09z"/>
				</g>
			</g>
			<g>
				<g>
					<g>
						<path class="st0" d="M86.9,25.26v0.06l0.05-0.06H86.9z"/>
					</g>
					<g>
						<polygon class="st0" points="86.95,25.26 86.9,25.32 86.9,25.26 						"/>
					</g>
				</g>
			</g>
		</g>
		<g>
			<g>
				<path class="st0" d="M446.88,5v117.75H123V5H446.88 M451.88,0H118v127.75h333.88V0L451.88,0z"/>
			</g>
			<g>
				<g>
					<path class="st0" d="M162.39,69.21l-2.26,1.85v6.51h-3.9V45.03h3.9v21.95l8.98-7.22l2.39,2.1l-6.42,5.17l7.26,10.54h-4.57
						L162.39,69.21z"/>
				</g>
				<g>
					<path class="st0" d="M186,61.78c0.82-0.73,1.7-1.29,2.62-1.68c0.92-0.39,1.73-0.6,2.44-0.63l-0.17,3.9
						c-1.26-0.06-2.4,0.19-3.42,0.75c-1.02,0.56-1.82,1.34-2.39,2.33c-0.57,0.99-0.86,2.05-0.86,3.17v7.93h-3.9V60.19h3.48
						l0.29,4.11C184.54,63.35,185.18,62.51,186,61.78z"/>
				</g>
				<g>
					<path class="st0" d="M199.67,52.38c0.48-0.42,1.02-0.63,1.64-0.63c0.62,0,1.16,0.21,1.62,0.63c0.46,0.42,0.69,0.94,0.69,1.55
						s-0.23,1.13-0.69,1.55c-0.46,0.42-1,0.63-1.62,0.63c-0.61,0-1.16-0.21-1.64-0.63c-0.48-0.42-0.71-0.94-0.71-1.55
						S199.19,52.8,199.67,52.38z M203.15,60.19v17.38h-3.9V60.19H203.15z"/>
				</g>
				<g>
					<path class="st0" d="M239.4,60.9c0.99,0.95,1.52,2.21,1.57,3.78v12.89h-3.9V66.11c-0.08-2.04-1.01-3.12-2.77-3.23
						c-1.01,0-1.91,0.3-2.71,0.9c-0.8,0.6-1.42,1.39-1.87,2.37c-0.45,0.98-0.69,2.03-0.71,3.15v8.27h-3.95V66.11
						c-0.08-2.04-1.04-3.12-2.86-3.23c-0.98,0-1.87,0.3-2.66,0.9c-0.8,0.6-1.42,1.4-1.87,2.39c-0.45,0.99-0.67,2.05-0.67,3.17v8.23
						h-3.9V60.19h3.53l0.3,3.28c0.67-1.26,1.59-2.24,2.75-2.94c1.16-0.7,2.48-1.05,3.97-1.05c1.4,0,2.57,0.33,3.53,0.99
						c0.95,0.66,1.57,1.56,1.85,2.71c0.73-1.15,1.65-2.05,2.77-2.71c1.12-0.66,2.32-0.99,3.61-0.99
						C237.07,59.47,238.4,59.95,239.4,60.9z"/>
				</g>
				<g>
					<path class="st0" d="M267.33,60.19l-11.21,25.73h-3.86l3.99-8.94l-8.06-16.79h4.41l5.62,12.38l5.5-12.38H267.33z"/>
				</g>
				<g>
					<path class="st0" d="M292.39,45.03v32.53h-3.95v-2.73c-0.84,0.98-1.87,1.75-3.08,2.31c-1.22,0.56-2.55,0.84-4.01,0.84
						c-1.62,0-3.09-0.39-4.41-1.18c-1.32-0.78-2.34-1.88-3.09-3.29c-0.74-1.41-1.11-3.04-1.11-4.89c0-1.88,0.39-3.5,1.17-4.89
						s1.86-2.44,3.23-3.17c1.37-0.73,2.92-1.09,4.66-1.09c1.32,0,2.58,0.27,3.8,0.82c1.22,0.55,2.17,1.3,2.88,2.25v-17.5H292.39z
						 M286.41,73.41c1.05-0.81,1.73-1.9,2.04-3.27v-3.27c-0.34-1.26-1.05-2.29-2.14-3.09c-1.09-0.8-2.34-1.19-3.74-1.19
						c-1.06,0-2.04,0.26-2.94,0.78c-0.9,0.52-1.61,1.23-2.14,2.14c-0.53,0.91-0.8,1.94-0.8,3.08c0,1.12,0.26,2.14,0.8,3.06
						c0.53,0.92,1.24,1.65,2.14,2.18c0.9,0.53,1.88,0.8,2.94,0.8C284.08,74.63,285.36,74.22,286.41,73.41z"/>
				</g>
				<g>
					<path class="st0" d="M314.68,73.12l1.81,2.9c-0.92,0.62-1.92,1.1-3,1.45c-1.08,0.35-2.12,0.52-3.13,0.52
						c-1.93,0-3.62-0.4-5.06-1.2s-2.55-1.9-3.34-3.3c-0.78-1.4-1.17-2.98-1.17-4.74c0-1.71,0.43-3.27,1.28-4.68
						c0.85-1.41,2.02-2.53,3.5-3.36c1.48-0.82,3.11-1.24,4.87-1.24c2.27,0,4.16,0.67,5.69,1.99c1.52,1.33,2.57,3.18,3.13,5.56
						l-13.77,4.83c0.5,0.87,1.18,1.55,2.04,2.04c0.85,0.49,1.83,0.73,2.92,0.73C311.9,74.63,313.31,74.12,314.68,73.12z
						 M306.2,64.26c-1.04,1.12-1.55,2.55-1.55,4.28c0,0.42,0.01,0.74,0.04,0.97l10.12-3.74c-0.42-0.95-1.01-1.72-1.78-2.31
						c-0.77-0.59-1.73-0.88-2.88-0.88C308.55,62.58,307.24,63.14,306.2,64.26z"/>
				</g>
				<g>
					<path class="st0" d="M331.18,45.03v32.53h-3.9V45.03H331.18z"/>
				</g>
				<g>
					<path class="st0" d="M341.55,52.38c0.48-0.42,1.02-0.63,1.64-0.63c0.62,0,1.16,0.21,1.62,0.63s0.69,0.94,0.69,1.55
						s-0.23,1.13-0.69,1.55c-0.46,0.42-1,0.63-1.62,0.63c-0.61,0-1.16-0.21-1.64-0.63c-0.48-0.42-0.71-0.94-0.71-1.55
						S341.07,52.8,341.55,52.38z M345.03,60.19v17.38h-3.9V60.19H345.03z"/>
				</g>
				<g>
					<path class="st0" d="M373.32,60.19v17.5c0,1.6-0.41,3.04-1.22,4.32c-0.81,1.29-1.97,2.31-3.46,3.06
						c-1.5,0.76-3.25,1.13-5.27,1.13c-1.76,0-3.28-0.29-4.55-0.88c-1.27-0.59-2.55-1.46-3.84-2.6l2.31-2.69
						c0.95,0.9,1.9,1.57,2.86,2.04c0.95,0.46,2,0.69,3.15,0.69c1.93,0,3.42-0.46,4.47-1.39c1.05-0.92,1.59-2.17,1.62-3.74l0.04-3.27
						c-0.64,1.09-1.59,1.97-2.83,2.62c-1.25,0.66-2.68,0.99-4.3,0.99c-1.59,0-3.06-0.41-4.41-1.22c-1.34-0.81-2.41-1.92-3.21-3.32
						c-0.8-1.4-1.19-2.95-1.19-4.66c0-1.76,0.41-3.35,1.24-4.77c0.82-1.41,1.94-2.53,3.34-3.34c1.4-0.81,2.9-1.22,4.49-1.22
						c1.48,0,2.86,0.29,4.11,0.88c1.26,0.59,2.2,1.34,2.81,2.27l0.3-2.44H373.32z M367.28,73.54c1.09-0.81,1.8-1.88,2.14-3.19V66.9
						c-0.39-1.26-1.13-2.27-2.22-3.04c-1.09-0.77-2.35-1.15-3.78-1.15c-1.71,0-3.13,0.56-4.28,1.68c-1.15,1.12-1.72,2.55-1.72,4.28
						c0,1.12,0.26,2.14,0.8,3.06c0.53,0.92,1.26,1.66,2.18,2.2c0.92,0.55,1.93,0.82,3.02,0.82
						C364.9,74.75,366.19,74.35,367.28,73.54z"/>
				</g>
				<g>
					<path class="st0" d="M398.09,60.96c1.06,0.97,1.61,2.22,1.64,3.76v12.85h-3.95v-11.5c-0.06-0.98-0.35-1.75-0.88-2.31
						c-0.53-0.56-1.33-0.85-2.39-0.88c-1.01,0-1.92,0.28-2.73,0.84c-0.81,0.56-1.45,1.34-1.91,2.35c-0.46,1.01-0.69,2.13-0.69,3.36
						v8.14h-3.9V45.03h3.82v18.3c0.64-1.15,1.57-2.07,2.79-2.77c1.22-0.7,2.61-1.05,4.18-1.05C395.68,59.52,397.02,60,398.09,60.96z
						"/>
				</g>
				<g>
					<path class="st0" d="M415.26,52.55v7.68H420v3.11h-4.74v14.23h-3.95V63.33h-3.19v-3.11h3.19v-7.68H415.26z"/>
				</g>
			</g>
		</g>
	</g>
</g>
</svg>
